<svg width="24" height="20" viewBox="0 0 24 20" fill="none" xmlns="http://www.w3.org/2000/svg">
<path d="M20.317 2.36997C18.761 1.65574 17.119 1.14642 15.4319 0.854773C15.4166 0.851914 15.4007 0.85396 15.3867 0.860621C15.3726 0.867282 15.3609 0.878218 15.3534 0.891873C15.1424 1.26717 14.9087 1.75667 14.7451 2.14137C12.9004 1.86517 11.0651 1.86517 9.2583 2.14137C9.0947 1.74807 8.8525 1.26717 8.6406 0.891873C8.63276 0.878529 8.62107 0.867861 8.60706 0.86126C8.59306 0.85466 8.57739 0.852434 8.5621 0.854873C6.87488 1.14584 5.2327 1.65511 3.6769 2.36987C3.66359 2.37556 3.65238 2.38524 3.6448 2.39757C0.533404 7.04597 -0.318996 11.5801 0.099204 16.058C0.100386 16.0689 0.103757 16.0796 0.109116 16.0892C0.114476 16.0988 0.121714 16.1073 0.130404 16.1141C2.1832 17.6217 4.1717 18.5369 6.1233 19.1435C6.13848 19.148 6.15468 19.1478 6.16972 19.1429C6.18477 19.1379 6.19795 19.1285 6.2075 19.1159C6.6691 18.4855 7.0806 17.8207 7.4335 17.1217C7.43835 17.1121 7.44112 17.1016 7.44163 17.0909C7.44213 17.0802 7.44036 17.0695 7.43643 17.0595C7.4325 17.0495 7.4265 17.0405 7.41883 17.033C7.41115 17.0255 7.40198 17.0197 7.3919 17.016C6.7391 16.7684 6.1176 16.4665 5.5197 16.1237C5.5088 16.1173 5.49964 16.1083 5.49304 16.0975C5.48643 16.0867 5.48258 16.0745 5.48183 16.0619C5.48108 16.0492 5.48345 16.0366 5.48873 16.0251C5.49401 16.0136 5.50204 16.0036 5.5121 15.996C5.6379 15.9017 5.7638 15.8037 5.8839 15.7046C5.89458 15.6958 5.9075 15.6901 5.92121 15.6883C5.93492 15.6864 5.94887 15.6884 5.9615 15.6941C9.8893 17.4874 14.1415 17.4874 18.0229 15.6941C18.0355 15.6881 18.0496 15.6858 18.0635 15.6874C18.0774 15.6891 18.0906 15.6947 18.1014 15.7036C18.2216 15.8026 18.3474 15.9017 18.4742 15.996C18.4843 16.0035 18.4924 16.0135 18.4977 16.0249C18.5031 16.0364 18.5055 16.0489 18.5049 16.0615C18.5042 16.0741 18.5005 16.0864 18.494 16.0972C18.4875 16.108 18.4784 16.1171 18.4676 16.1236C17.8695 16.4729 17.2429 16.7711 16.5946 17.015C16.5845 17.0188 16.5754 17.0248 16.5678 17.0324C16.5602 17.04 16.5542 17.0492 16.5504 17.0592C16.5466 17.0693 16.5449 17.0801 16.5455 17.0908C16.5461 17.1016 16.549 17.1121 16.5539 17.1217C16.9143 17.8197 17.3258 18.4845 17.7789 19.1149C17.7882 19.1279 17.8013 19.1376 17.8164 19.1428C17.8315 19.1479 17.8478 19.1482 17.8631 19.1435C19.8241 18.5368 21.8126 17.6216 23.8654 16.1141C23.8742 16.1076 23.8816 16.0994 23.887 16.0898C23.8924 16.0803 23.8957 16.0698 23.8967 16.0589C24.3971 10.8819 23.0585 6.38497 20.3482 2.39847C20.3416 2.38552 20.3305 2.37548 20.317 2.36997ZM8.02 13.3314C6.8375 13.3314 5.8631 12.2457 5.8631 10.9124C5.8631 9.57917 6.8186 8.49347 8.0201 8.49347C9.2309 8.49347 10.1958 9.58867 10.1769 10.9125C10.1769 12.2457 9.2214 13.3314 8.02 13.3314ZM15.9948 13.3314C14.8123 13.3314 13.8379 12.2457 13.8379 10.9124C13.8379 9.57917 14.7933 8.49347 15.9948 8.49347C17.2056 8.49347 18.1705 9.58867 18.1516 10.9125C18.1516 12.2457 17.2056 13.3314 15.9948 13.3314Z" fill="#5865F2"/>
</svg>
