<svg width="58" height="58" viewBox="0 0 58 58" fill="none" xmlns="http://www.w3.org/2000/svg">
<g filter="url(#filter0_d_21_52)">
<rect x="4" width="50" height="50" rx="8" fill="white"/>
<rect x="5" y="1" width="48" height="48" rx="7" stroke="#999999" stroke-width="2"/>
</g>
<path d="M40.546 23.9303L30.067 13.4523C29.463 12.8493 28.485 12.8493 27.879 13.4523L25.708 15.6273L28.468 18.3872C29.113 18.1722 29.847 18.3172 30.357 18.8282C30.873 19.3432 31.015 20.0863 30.795 20.7283L33.453 23.3882C34.098 23.1652 34.84 23.3102 35.353 23.8232C36.074 24.5432 36.074 25.7072 35.353 26.4272C34.634 27.1462 33.472 27.1462 32.753 26.4272C32.214 25.8862 32.079 25.0902 32.349 24.4312L29.86 21.9552V28.4802C30.036 28.5662 30.202 28.6832 30.348 28.8282C31.061 29.5492 31.061 30.7112 30.348 31.4282C29.629 32.1492 28.459 32.1492 27.739 31.4282C27.02 30.7092 27.02 29.5492 27.739 28.8302C27.921 28.6502 28.126 28.5142 28.344 28.4242V21.8352C28.127 21.7442 27.92 21.6132 27.744 21.4342C27.199 20.8892 27.068 20.0923 27.348 19.4253L24.636 16.7003L17.45 23.8812C16.85 24.4862 16.85 25.4652 17.45 26.0702L27.93 36.5473C28.534 37.1513 29.512 37.1513 30.116 36.5473L40.546 26.1172C41.151 25.5142 41.151 24.5353 40.546 23.9303Z" fill="#F05032"/>
<defs>
<filter id="filter0_d_21_52" x="0" y="0" width="58" height="58" filterUnits="userSpaceOnUse" color-interpolation-filters="sRGB">
<feFlood flood-opacity="0" result="BackgroundImageFix"/>
<feColorMatrix in="SourceAlpha" type="matrix" values="0 0 0 0 0 0 0 0 0 0 0 0 0 0 0 0 0 0 127 0" result="hardAlpha"/>
<feOffset dy="4"/>
<feGaussianBlur stdDeviation="2"/>
<feComposite in2="hardAlpha" operator="out"/>
<feColorMatrix type="matrix" values="0 0 0 0 0 0 0 0 0 0 0 0 0 0 0 0 0 0 0.25 0"/>
<feBlend mode="normal" in2="BackgroundImageFix" result="effect1_dropShadow_21_52"/>
<feBlend mode="normal" in="SourceGraphic" in2="effect1_dropShadow_21_52" result="shape"/>
</filter>
</defs>
</svg>
