<svg width="24" height="18" viewBox="0 0 24 18" fill="none" xmlns="http://www.w3.org/2000/svg">
<path d="M24 2.45709V16.3661C24 17.2701 23.268 18.0021 22.364 18.0021H18.545V8.73009L12 13.6401L5.455 8.73009V18.0031H1.636C1.42107 18.0031 1.20825 17.9607 1.0097 17.8785C0.811145 17.7962 0.63075 17.6756 0.47882 17.5236C0.32689 17.3715 0.206404 17.1911 0.124246 16.9925C0.0420884 16.7939 -0.000131068 16.581 3.05652e-07 16.3661V2.45709C3.05652e-07 0.434089 2.309 -0.72091 3.927 0.49309L5.455 1.64009L12 6.54809L18.545 1.63809L20.073 0.49309C21.69 -0.719911 24 0.434089 24 2.45709Z" fill="#EA4335"/>
</svg>
