<svg width="58" height="58" viewBox="0 0 58 58" fill="none" xmlns="http://www.w3.org/2000/svg">
<g filter="url(#filter0_d_21_50)">
<rect x="4" width="50" height="50" rx="8" fill="white"/>
<rect x="5" y="1" width="48" height="48" rx="7" stroke="#999999" stroke-width="2"/>
</g>
<path d="M17 13H41V37H17V13ZM39.034 31.276C38.859 30.181 38.146 29.261 36.031 28.403C35.295 28.058 34.477 27.818 34.234 27.263C34.143 26.933 34.129 26.753 34.188 26.558C34.338 25.912 35.103 25.718 35.703 25.898C36.093 26.018 36.453 26.318 36.679 26.798C37.713 26.122 37.713 26.122 38.434 25.673C38.164 25.253 38.03 25.072 37.848 24.893C37.218 24.188 36.379 23.828 35.014 23.859L34.309 23.948C33.633 24.113 32.989 24.473 32.599 24.953C31.459 26.244 31.788 28.494 33.168 29.424C34.533 30.444 36.529 30.668 36.784 31.629C37.024 32.799 35.914 33.174 34.818 33.039C34.007 32.859 33.558 32.453 33.063 31.703L31.233 32.754C31.443 33.234 31.683 33.443 32.043 33.863C33.783 35.619 38.133 35.529 38.914 32.859C38.943 32.769 39.154 32.154 38.988 31.209L39.034 31.276ZM30.051 24.031H27.803C27.803 25.969 27.794 27.895 27.794 29.836C27.794 31.068 27.857 32.199 27.656 32.547C27.326 33.236 26.476 33.148 26.09 33.027C25.694 32.831 25.493 32.561 25.26 32.172C25.197 32.067 25.15 31.976 25.133 31.976L23.308 33.101C23.613 33.731 24.058 34.273 24.632 34.618C25.487 35.128 26.636 35.293 27.839 35.023C28.622 34.797 29.297 34.332 29.65 33.612C30.16 32.682 30.052 31.542 30.047 30.266C30.059 28.212 30.047 26.157 30.047 24.087L30.051 24.031Z" fill="#F7DF1E"/>
<defs>
<filter id="filter0_d_21_50" x="0" y="0" width="58" height="58" filterUnits="userSpaceOnUse" color-interpolation-filters="sRGB">
<feFlood flood-opacity="0" result="BackgroundImageFix"/>
<feColorMatrix in="SourceAlpha" type="matrix" values="0 0 0 0 0 0 0 0 0 0 0 0 0 0 0 0 0 0 127 0" result="hardAlpha"/>
<feOffset dy="4"/>
<feGaussianBlur stdDeviation="2"/>
<feComposite in2="hardAlpha" operator="out"/>
<feColorMatrix type="matrix" values="0 0 0 0 0 0 0 0 0 0 0 0 0 0 0 0 0 0 0.25 0"/>
<feBlend mode="normal" in2="BackgroundImageFix" result="effect1_dropShadow_21_50"/>
<feBlend mode="normal" in="SourceGraphic" in2="effect1_dropShadow_21_50" result="shape"/>
</filter>
</defs>
</svg>
