<svg width="58" height="58" viewBox="0 0 58 58" fill="none" xmlns="http://www.w3.org/2000/svg">
<g filter="url(#filter0_d_21_44)">
<rect x="4" width="50" height="50" rx="8" fill="white"/>
<rect x="5" y="1" width="48" height="48" rx="7" stroke="#999999" stroke-width="2"/>
</g>
<path d="M24.7515 31.5543C24.7515 31.5543 23.5018 32.1151 25.6212 32.2756C28.1807 32.5161 29.5339 32.4759 32.3594 32.0754C32.3594 32.0754 33.12 32.4365 34.1527 32.7167C27.794 34.7202 19.7516 32.5965 24.7515 31.5543ZM23.9364 28.9497C23.9364 28.9497 22.5776 29.7112 24.6969 29.8711C27.4679 30.0714 29.6425 30.1116 33.3921 29.5511C33.3921 29.5511 33.8817 29.952 34.6963 30.1523C27.0346 31.8353 18.4479 30.3123 23.9364 28.95V28.9497ZM38.9351 33.518C38.9351 33.518 39.8588 34.0789 37.9024 34.52C34.2612 35.3214 22.6321 35.5622 19.3715 34.52C18.2309 34.159 20.4043 33.6378 21.1103 33.5582C21.817 33.438 22.197 33.438 22.197 33.438C20.9473 32.7967 13.8825 34.7604 18.6104 35.3255C31.5983 36.8887 42.3043 34.6444 38.9346 33.5221L38.9351 33.518ZM25.3492 26.2243C25.3492 26.2243 19.4255 27.2665 23.2292 27.6268C24.8595 27.7867 28.0656 27.747 31.0546 27.5866C33.5001 27.4265 35.9512 27.1057 35.9512 27.1057C35.9512 27.1057 35.0814 27.3863 34.4838 27.6666C28.4467 28.8298 16.8716 28.3087 20.1867 27.1065C23.0133 26.1045 25.3492 26.2243 25.3492 26.2243ZM35.9455 30.5925C42.0327 28.2681 39.2061 26.0241 37.2497 26.3047C36.7601 26.3848 36.5432 26.4648 36.5432 26.4648C36.5432 26.4648 36.7061 26.2243 37.0867 26.1448C40.9448 25.1428 43.9885 29.1503 35.8371 30.7132C35.8371 30.7132 35.8916 30.673 35.9455 30.5929V30.5925ZM25.9467 36.9236C31.8159 37.2043 40.7824 36.7636 41 34.7194C41 34.7194 40.566 35.5207 36.1637 36.1219C31.1643 36.803 24.9685 36.723 21.3279 36.2819C21.3279 36.2819 22.0885 36.7627 25.9472 36.9232L25.9467 36.9236Z" fill="#4E7896"/>
<path d="M32.2453 13C32.2453 13 35.6144 15.5247 29.0392 19.3311C23.7678 22.4166 27.843 24.1801 29.0392 26.1833C25.9416 24.1399 23.7143 22.3362 25.2351 20.6531C27.4685 18.1699 33.6085 16.9677 32.2453 13ZM30.5065 24.501C32.0822 25.8234 30.0725 27.0257 30.0725 27.0257C30.0725 27.0257 34.0937 25.5034 32.2464 23.6193C30.5615 21.8159 29.2574 20.9342 36.3222 17.9283C36.3222 17.9283 25.1815 19.9716 30.5077 24.5002L30.5065 24.501Z" fill="#F58219"/>
<defs>
<filter id="filter0_d_21_44" x="0" y="0" width="58" height="58" filterUnits="userSpaceOnUse" color-interpolation-filters="sRGB">
<feFlood flood-opacity="0" result="BackgroundImageFix"/>
<feColorMatrix in="SourceAlpha" type="matrix" values="0 0 0 0 0 0 0 0 0 0 0 0 0 0 0 0 0 0 127 0" result="hardAlpha"/>
<feOffset dy="4"/>
<feGaussianBlur stdDeviation="2"/>
<feComposite in2="hardAlpha" operator="out"/>
<feColorMatrix type="matrix" values="0 0 0 0 0 0 0 0 0 0 0 0 0 0 0 0 0 0 0.25 0"/>
<feBlend mode="normal" in2="BackgroundImageFix" result="effect1_dropShadow_21_44"/>
<feBlend mode="normal" in="SourceGraphic" in2="effect1_dropShadow_21_44" result="shape"/>
</filter>
</defs>
</svg>
