<svg width="128" height="38" viewBox="0 0 128 38" fill="none" xmlns="http://www.w3.org/2000/svg">
<g filter="url(#filter0_d_31_16)">
<rect x="4" width="120" height="30" rx="10" fill="black"/>
<path d="M23 3C16.37 3 11 8.373 11 15C11 20.303 14.438 24.8 19.205 26.385C19.805 26.498 20.025 26.127 20.025 25.808C20.025 25.523 20.015 24.768 20.01 23.768C16.672 24.492 15.968 22.158 15.968 22.158C15.422 20.773 14.633 20.403 14.633 20.403C13.546 19.659 14.717 19.674 14.717 19.674C15.922 19.758 16.555 20.91 16.555 20.91C17.625 22.745 19.364 22.215 20.05 21.908C20.158 21.132 20.467 20.603 20.81 20.303C18.145 20.003 15.344 18.971 15.344 14.373C15.344 13.063 15.809 11.993 16.579 11.153C16.444 10.85 16.039 9.63 16.684 7.977C16.684 7.977 17.689 7.655 19.984 9.207C20.944 8.94 21.964 8.808 22.984 8.802C24.004 8.808 25.024 8.94 25.984 9.207C28.264 7.655 29.269 7.977 29.269 7.977C29.914 9.63 29.509 10.85 29.389 11.153C30.154 11.993 30.619 13.063 30.619 14.373C30.619 18.983 27.814 19.998 25.144 20.293C25.564 20.653 25.954 21.389 25.954 22.513C25.954 24.119 25.939 25.409 25.939 25.799C25.939 26.114 26.149 26.489 26.764 26.369C31.565 24.795 35 20.295 35 15C35 8.373 29.627 3 23 3Z" fill="white"/>
<path d="M44.8745 19.024C44.1465 19.024 43.7825 18.944 43.7825 18.784V11.008C43.7825 10.736 43.9065 10.6 44.1545 10.6H46.2665C47.4505 10.6 48.3025 10.844 48.8225 11.332C49.3505 11.82 49.6145 12.528 49.6145 13.456C49.6145 14.224 49.3665 14.928 48.8705 15.568C48.6225 15.888 48.2585 16.144 47.7785 16.336C47.2985 16.528 46.7385 16.624 46.0985 16.624V18.772C46.0985 18.868 45.9465 18.936 45.6425 18.976C45.3465 19.008 45.0905 19.024 44.8745 19.024ZM46.0985 12.688V14.584H46.2545C46.5345 14.584 46.7705 14.496 46.9625 14.32C47.1545 14.144 47.2505 13.896 47.2505 13.576C47.2505 13.256 47.1825 13.028 47.0465 12.892C46.9185 12.756 46.6865 12.688 46.3505 12.688H46.0985ZM53.2422 18.988C53.2422 19.044 52.8782 19.072 52.1502 19.072C51.4222 19.056 51.0582 19.024 51.0582 18.976V14.992H50.7342C50.6062 14.992 50.5022 14.916 50.4222 14.764C50.3502 14.604 50.3142 14.408 50.3142 14.176C50.3142 13.312 50.5702 12.88 51.0822 12.88C51.4422 12.88 51.7422 12.992 51.9822 13.216C52.2222 13.432 52.3422 13.68 52.3422 13.96C52.5102 13.632 52.7342 13.372 53.0142 13.18C53.3022 12.98 53.5942 12.88 53.8902 12.88C54.3542 12.88 54.6342 13 54.7302 13.24C54.7542 13.304 54.7662 13.4 54.7662 13.528C54.7662 13.648 54.7262 13.868 54.6462 14.188C54.5742 14.508 54.4982 14.74 54.4182 14.884C54.3382 15.028 54.2902 15.1 54.2742 15.1C54.2582 15.1 54.1822 15.072 54.0462 15.016C53.9182 14.952 53.8022 14.92 53.6982 14.92C53.3942 14.92 53.2422 15.16 53.2422 15.64V18.988ZM55.888 18.292C55.392 17.74 55.144 16.976 55.144 16C55.144 15.024 55.392 14.26 55.888 13.708C56.392 13.156 57.068 12.88 57.916 12.88C58.764 12.88 59.436 13.156 59.932 13.708C60.428 14.26 60.676 15.024 60.676 16C60.676 16.976 60.428 17.74 59.932 18.292C59.436 18.844 58.764 19.12 57.916 19.12C57.068 19.12 56.392 18.844 55.888 18.292ZM57.916 14.884C57.468 14.884 57.244 15.252 57.244 15.988C57.244 16.724 57.468 17.092 57.916 17.092C58.372 17.092 58.6 16.724 58.6 15.988C58.6 15.252 58.372 14.884 57.916 14.884ZM61.5244 18.58V13.048C61.5244 13 61.8844 12.976 62.6044 12.976C63.3324 12.976 63.6964 12.996 63.6964 13.036V19.432C63.6964 20.024 63.4484 20.492 62.9524 20.836C62.4644 21.188 61.8524 21.364 61.1164 21.364C60.0844 21.364 59.5684 21.004 59.5684 20.284C59.5684 20.044 59.6084 19.844 59.6884 19.684C59.7604 19.692 59.8604 19.696 59.9884 19.696C60.5724 19.696 60.9724 19.604 61.1884 19.42C61.4124 19.236 61.5244 18.956 61.5244 18.58ZM61.5244 12.34V10.612C61.5244 10.532 61.8844 10.492 62.6044 10.492C63.3324 10.492 63.6964 10.516 63.6964 10.564V12.328C63.6964 12.384 63.3324 12.412 62.6044 12.412C61.8844 12.412 61.5244 12.388 61.5244 12.34ZM69.3182 18.676C68.8142 18.972 68.1662 19.12 67.3742 19.12C66.5822 19.12 65.9142 18.852 65.3702 18.316C64.8262 17.772 64.5542 17.024 64.5542 16.072C64.5542 15.112 64.8142 14.34 65.3342 13.756C65.8622 13.172 66.5262 12.88 67.3262 12.88C68.1262 12.88 68.7422 13.084 69.1742 13.492C69.6142 13.9 69.8342 14.396 69.8342 14.98C69.8342 16.276 69.0902 16.924 67.6022 16.924H66.7742C66.7742 17.164 66.8382 17.332 66.9662 17.428C67.1022 17.516 67.2982 17.56 67.5542 17.56C68.1142 17.56 68.6462 17.432 69.1502 17.176C69.1582 17.168 69.1942 17.224 69.2582 17.344C69.4502 17.688 69.5462 17.98 69.5462 18.22C69.5462 18.452 69.4702 18.604 69.3182 18.676ZM67.8182 15.208C67.8182 14.872 67.6542 14.704 67.3262 14.704C67.1742 14.704 67.0422 14.752 66.9302 14.848C66.8262 14.936 66.7742 15.068 66.7742 15.244V15.616H67.4222C67.6862 15.616 67.8182 15.48 67.8182 15.208ZM72.5861 16.024C72.5861 16.808 72.8821 17.2 73.4741 17.2C73.8581 17.2 74.1781 17.124 74.4341 16.972C74.5541 16.972 74.6501 17.18 74.7221 17.596C74.8021 18.004 74.8421 18.284 74.8421 18.436C74.8421 18.58 74.8221 18.676 74.7821 18.724C74.3581 18.988 73.7781 19.12 73.0421 19.12C72.3061 19.12 71.6781 18.848 71.1581 18.304C70.6461 17.752 70.3901 17.004 70.3901 16.06C70.3901 15.108 70.6421 14.34 71.1461 13.756C71.6581 13.172 72.3341 12.88 73.1741 12.88C74.0221 12.88 74.6101 13.084 74.9381 13.492C75.0101 13.58 75.0461 13.712 75.0461 13.888C75.0461 14.056 75.0141 14.264 74.9501 14.512C74.8061 15.024 74.6181 15.32 74.3861 15.4C74.3541 15.408 74.3061 15.412 74.2421 15.412C74.1861 15.412 74.1141 15.364 74.0261 15.268C73.7141 14.956 73.4621 14.8 73.2701 14.8C73.0861 14.8 72.9261 14.896 72.7901 15.088C72.6541 15.28 72.5861 15.592 72.5861 16.024ZM78.4641 18.928C78.4641 19.024 78.1281 19.072 77.4561 19.072C76.6561 19.04 76.2561 18.988 76.2561 18.916V14.668H75.6441C75.4841 14.668 75.4041 14.392 75.4041 13.84C75.4041 13.696 75.4161 13.52 75.4401 13.312C75.4721 13.104 75.5321 13 75.6201 13H76.2561V11.944C76.2561 11.784 76.5921 11.704 77.2641 11.704C77.9441 11.704 78.2841 11.768 78.2841 11.896V12.664L78.2961 13H79.3161C79.4521 13 79.5201 13.28 79.5201 13.84C79.5201 14.4 79.4521 14.68 79.3161 14.68H78.4641V18.928ZM86.8838 16.492L86.9078 14.86C86.9078 14.748 87.0238 14.676 87.2558 14.644C87.4878 14.604 87.6798 14.584 87.8318 14.584L88.2998 14.62C88.6038 14.668 88.7558 14.752 88.7558 14.872L88.7078 18.628C88.5478 18.74 88.2238 18.852 87.7358 18.964C87.2558 19.068 86.7038 19.12 86.0798 19.12C84.9198 19.12 83.9838 18.744 83.2718 17.992C82.5598 17.24 82.2038 16.136 82.2038 14.68C82.2038 13.44 82.5518 12.432 83.2478 11.656C83.9438 10.88 84.9078 10.492 86.1398 10.492C86.6998 10.492 87.2038 10.548 87.6518 10.66C88.1078 10.764 88.4198 10.908 88.5878 11.092C88.5958 11.156 88.5998 11.276 88.5998 11.452C88.5998 11.628 88.5398 11.88 88.4198 12.208C88.2998 12.528 88.1638 12.768 88.0117 12.928C87.8598 13.088 87.7478 13.168 87.6758 13.168C87.6118 13.168 87.5398 13.14 87.4598 13.084C87.3878 13.02 87.2398 12.956 87.0158 12.892C86.7918 12.82 86.5758 12.784 86.3678 12.784C85.8718 12.784 85.4678 12.944 85.1558 13.264C84.8518 13.584 84.6998 14.08 84.6998 14.752C84.6998 15.424 84.8558 15.936 85.1678 16.288C85.4878 16.632 85.8518 16.804 86.2598 16.804C86.6758 16.804 86.8838 16.7 86.8838 16.492ZM92.0329 18.928C92.0329 18.992 91.6649 19.024 90.9289 19.024C90.2009 19.024 89.8369 18.996 89.8369 18.94V13.048C89.8369 12.992 90.2009 12.964 90.9289 12.964C91.6649 12.964 92.0329 12.988 92.0329 13.036V18.928ZM92.0329 12.328C92.0329 12.384 91.6649 12.412 90.9289 12.412C90.2009 12.412 89.8369 12.388 89.8369 12.34V10.612C89.8369 10.532 90.2009 10.492 90.9289 10.492C91.6649 10.492 92.0329 10.516 92.0329 10.564V12.328ZM95.8781 18.928C95.8781 19.024 95.5421 19.072 94.8701 19.072C94.0701 19.04 93.6701 18.988 93.6701 18.916V14.668H93.0581C92.8981 14.668 92.8181 14.392 92.8181 13.84C92.8181 13.696 92.8301 13.52 92.8541 13.312C92.8861 13.104 92.9461 13 93.0341 13H93.6701V11.944C93.6701 11.784 94.0061 11.704 94.6781 11.704C95.3581 11.704 95.6981 11.768 95.6981 11.896V12.664L95.7101 13H96.7301C96.8661 13 96.9341 13.28 96.9341 13.84C96.9341 14.4 96.8661 14.68 96.7301 14.68H95.8781V18.928ZM99.5401 18.916C99.5401 18.988 99.2041 19.024 98.5321 19.024C97.8681 19.024 97.5361 18.968 97.5361 18.856V10.636C97.5361 10.58 97.6601 10.54 97.9081 10.516C98.1561 10.492 98.3641 10.48 98.5321 10.48C99.2041 10.48 99.5401 10.552 99.5401 10.696V13.096C99.9881 12.96 100.328 12.892 100.56 12.892C101.168 12.892 101.648 13.056 102 13.384C102.352 13.704 102.528 14.304 102.528 15.184V18.904C102.528 18.976 102.216 19.012 101.592 19.012C100.888 18.988 100.536 18.948 100.536 18.892V15.364C100.536 14.972 100.408 14.776 100.152 14.776C99.9761 14.776 99.7721 14.86 99.5401 15.028V18.916ZM103.488 13.072C103.488 12.984 103.832 12.94 104.52 12.94C105.208 12.94 105.552 12.984 105.552 13.072V16.576C105.552 16.976 105.68 17.176 105.936 17.176C106.128 17.176 106.344 17.092 106.584 16.924V13.072C106.584 12.992 106.924 12.952 107.604 12.952C108.284 12.952 108.624 12.992 108.624 13.072V17.008H108.936C109.208 17.008 109.344 17.268 109.344 17.788C109.344 18.052 109.288 18.32 109.176 18.592C109.016 18.944 108.8 19.12 108.528 19.12C107.992 19.12 107.596 18.9 107.34 18.46L107.328 18.472C106.84 18.904 106.316 19.12 105.756 19.12C104.98 19.12 104.408 18.928 104.04 18.544C103.672 18.152 103.488 17.508 103.488 16.612V13.072ZM110.135 10.636C110.135 10.54 110.479 10.492 111.167 10.492C111.863 10.492 112.211 10.544 112.211 10.648V12.976C112.555 12.912 112.799 12.88 112.943 12.88C114.623 12.88 115.463 13.844 115.463 15.772C115.463 16.844 115.203 17.672 114.683 18.256C114.171 18.832 113.439 19.12 112.487 19.12C111.543 19.12 110.759 18.908 110.135 18.484V10.636ZM112.607 14.752C112.471 14.752 112.339 14.796 112.211 14.884V17.176C112.323 17.224 112.439 17.248 112.559 17.248C112.687 17.248 112.815 17.2 112.943 17.104C113.167 16.944 113.279 16.572 113.279 15.988C113.279 15.164 113.055 14.752 112.607 14.752Z" fill="white"/>
</g>
<defs>
<filter id="filter0_d_31_16" x="0" y="0" width="128" height="38" filterUnits="userSpaceOnUse" color-interpolation-filters="sRGB">
<feFlood flood-opacity="0" result="BackgroundImageFix"/>
<feColorMatrix in="SourceAlpha" type="matrix" values="0 0 0 0 0 0 0 0 0 0 0 0 0 0 0 0 0 0 127 0" result="hardAlpha"/>
<feOffset dy="4"/>
<feGaussianBlur stdDeviation="2"/>
<feComposite in2="hardAlpha" operator="out"/>
<feColorMatrix type="matrix" values="0 0 0 0 0 0 0 0 0 0 0 0 0 0 0 0 0 0 0.25 0"/>
<feBlend mode="normal" in2="BackgroundImageFix" result="effect1_dropShadow_31_16"/>
<feBlend mode="normal" in="SourceGraphic" in2="effect1_dropShadow_31_16" result="shape"/>
</filter>
</defs>
</svg>
