<svg width="58" height="58" viewBox="0 0 58 58" fill="none" xmlns="http://www.w3.org/2000/svg">
<g filter="url(#filter0_d_178_614)">
<rect x="4" width="50" height="50" rx="8" fill="white"/>
<rect x="5" y="1" width="48" height="48" rx="7" stroke="#999999" stroke-width="2"/>
</g>
<path d="M29.0002 32.0834C19.8627 32.0834 12.7085 28.9667 12.7085 25.0001C12.7085 21.0334 19.8627 17.9167 29.0002 17.9167C38.1377 17.9167 45.2918 21.0334 45.2918 25.0001C45.2918 28.9667 38.1377 32.0834 29.0002 32.0834ZM29.0002 19.3334C20.0752 19.3334 14.1252 22.2376 14.1252 25.0001C14.1252 27.7626 20.0752 30.6667 29.0002 30.6667C37.9252 30.6667 43.8752 27.7626 43.8752 25.0001C43.8752 22.2376 37.9252 19.3334 29.0002 19.3334Z" fill="#80DEEA"/>
<path d="M22.6959 39.5916C21.9875 39.5916 21.4209 39.4499 20.8542 39.0957C17.3834 37.1124 18.3042 29.3916 22.8375 21.4582C24.9625 17.7749 27.5834 14.6582 30.1334 12.6749C32.8959 10.5499 35.375 9.91239 37.075 10.9041C38.8459 11.8957 39.4834 14.3749 39.0584 17.8457C38.6334 21.1041 37.2167 24.9291 35.0917 28.6124C32.9667 32.2957 30.3459 35.4124 27.7959 37.3957C25.9542 38.8124 24.1834 39.5916 22.6959 39.5916ZM35.3042 11.8249C34.1709 11.8249 32.6834 12.4624 31.0542 13.7374C28.6459 15.6499 26.1667 18.6249 24.1125 22.1666C19.65 29.8874 19.225 36.5457 21.5625 37.8916C22.7667 38.5999 24.75 37.9624 26.9459 36.2624C29.3542 34.3499 31.8334 31.3749 33.8875 27.8332C35.9417 24.2916 37.2875 20.6791 37.7125 17.6332C38.0667 14.7999 37.6417 12.8166 36.4375 12.1082C36.0834 11.9666 35.7292 11.8249 35.3042 11.8249Z" fill="#80DEEA"/>
<path d="M35.3751 39.5917C31.8334 39.5917 26.7334 35.2709 22.9084 28.5417C18.3042 20.6084 17.3834 12.8875 20.8542 10.9042C24.3251 8.92088 30.5584 13.5251 35.1626 21.4584C37.2876 25.1417 38.7042 28.9667 39.1292 32.225C39.6251 35.6959 38.9167 38.1042 37.1459 39.1667C36.5792 39.45 36.0126 39.5917 35.3751 39.5917ZM21.5626 12.1084C19.2251 13.4542 19.6501 20.1125 24.1126 27.8334C28.5751 35.5542 34.1001 39.2375 36.4376 37.8917C37.6417 37.1834 38.0667 35.2001 37.7126 32.3667C37.2876 29.3209 35.9417 25.7084 33.8876 22.1667C29.4251 14.4459 23.9001 10.7625 21.5626 12.1084Z" fill="#80DEEA"/>
<path d="M28.9998 27.8334C30.5646 27.8334 31.8332 26.5649 31.8332 25.0001C31.8332 23.4353 30.5646 22.1667 28.9998 22.1667C27.435 22.1667 26.1665 23.4353 26.1665 25.0001C26.1665 26.5649 27.435 27.8334 28.9998 27.8334Z" fill="#80DEEA"/>
<defs>
<filter id="filter0_d_178_614" x="0" y="0" width="58" height="58" filterUnits="userSpaceOnUse" color-interpolation-filters="sRGB">
<feFlood flood-opacity="0" result="BackgroundImageFix"/>
<feColorMatrix in="SourceAlpha" type="matrix" values="0 0 0 0 0 0 0 0 0 0 0 0 0 0 0 0 0 0 127 0" result="hardAlpha"/>
<feOffset dy="4"/>
<feGaussianBlur stdDeviation="2"/>
<feComposite in2="hardAlpha" operator="out"/>
<feColorMatrix type="matrix" values="0 0 0 0 0 0 0 0 0 0 0 0 0 0 0 0 0 0 0.25 0"/>
<feBlend mode="normal" in2="BackgroundImageFix" result="effect1_dropShadow_178_614"/>
<feBlend mode="normal" in="SourceGraphic" in2="effect1_dropShadow_178_614" result="shape"/>
</filter>
</defs>
</svg>
