<svg width="58" height="58" viewBox="0 0 58 58" fill="none" xmlns="http://www.w3.org/2000/svg">
<g filter="url(#filter0_d_21_45)">
<rect x="4" width="50" height="50" rx="8" fill="white"/>
<rect x="5" y="1" width="48" height="48" rx="7" stroke="#999999" stroke-width="2"/>
</g>
<path d="M38.8526 14.4006C38.5194 15.1999 38.0881 15.9547 37.5686 16.6477C36.4563 15.4975 35.1246 14.582 33.6523 13.9555C32.18 13.329 30.5969 13.0041 28.9969 13C27.3968 12.996 25.8122 13.3129 24.3367 13.932C22.8612 14.551 21.5249 15.4597 20.4067 16.6043C19.2886 17.7488 18.4114 19.106 17.8269 20.5955C17.2424 22.085 16.9626 23.6766 17.004 25.2762C17.0454 26.8757 17.4072 28.4507 18.0679 29.908C18.7286 31.3653 19.6749 32.6753 20.8507 33.7605L21.2952 34.1556C22.982 35.5781 25.0296 36.5061 27.2113 36.8367C29.3929 37.1672 31.6235 36.8875 33.656 36.0285C35.6884 35.1695 37.4435 33.7647 38.7268 31.9697C40.0101 30.1747 40.7716 28.0596 40.9268 25.8585C41.2725 22.8459 40.3589 18.9937 38.8526 14.4006ZM22.5794 33.8593C22.4525 34.0153 22.2821 34.1302 22.0899 34.1894C21.8976 34.2486 21.6922 34.2496 21.4994 34.192C21.3066 34.1345 21.1353 34.0211 21.0069 33.8663C20.8786 33.7114 20.799 33.5219 20.7783 33.3218C20.7576 33.1217 20.7967 32.92 20.8906 32.7421C20.9845 32.5642 21.129 32.4182 21.3059 32.3224C21.4828 32.2266 21.6842 32.1855 21.8844 32.2041C22.0847 32.2227 22.275 32.3003 22.4312 32.427C22.636 32.6004 22.7658 32.8464 22.7935 33.1133C22.8211 33.3803 22.7444 33.6476 22.5794 33.8593ZM38.7785 30.2787C35.84 34.205 29.5184 32.8715 25.4933 33.0691C25.4933 33.0691 24.7772 33.1185 24.061 33.2172C24.061 33.2172 24.3327 33.0938 24.6784 32.9703C27.5182 31.9826 28.8516 31.785 30.5802 30.896C33.8151 29.2415 37.05 25.6116 37.692 21.8581C36.4573 25.4634 32.7039 28.5748 29.2961 29.8342C26.9502 30.6985 22.7276 31.5381 22.7276 31.5381L22.5547 31.4393C19.6902 30.0317 19.5915 23.8089 24.8265 21.8087C27.1231 20.9197 29.2961 21.4137 31.7902 20.821C34.4324 20.2036 37.4945 18.2281 38.7292 15.6353C40.112 19.8085 41.7912 26.2783 38.7785 30.2787Z" fill="#6DB33F"/>
<defs>
<filter id="filter0_d_21_45" x="0" y="0" width="58" height="58" filterUnits="userSpaceOnUse" color-interpolation-filters="sRGB">
<feFlood flood-opacity="0" result="BackgroundImageFix"/>
<feColorMatrix in="SourceAlpha" type="matrix" values="0 0 0 0 0 0 0 0 0 0 0 0 0 0 0 0 0 0 127 0" result="hardAlpha"/>
<feOffset dy="4"/>
<feGaussianBlur stdDeviation="2"/>
<feComposite in2="hardAlpha" operator="out"/>
<feColorMatrix type="matrix" values="0 0 0 0 0 0 0 0 0 0 0 0 0 0 0 0 0 0 0.25 0"/>
<feBlend mode="normal" in2="BackgroundImageFix" result="effect1_dropShadow_21_45"/>
<feBlend mode="normal" in="SourceGraphic" in2="effect1_dropShadow_21_45" result="shape"/>
</filter>
</defs>
</svg>
