<svg width="158" height="38" viewBox="0 0 158 38" fill="none" xmlns="http://www.w3.org/2000/svg">
<g filter="url(#filter0_d_31_17)">
<rect x="4" width="150" height="30" rx="10" fill="black"/>
<path d="M45.7172 18.448V11.248C45.7172 11.048 45.7652 10.892 45.8612 10.78C45.9652 10.66 46.0972 10.6 46.2572 10.6H48.2612C49.5332 10.6 50.4972 10.92 51.1532 11.56C51.8172 12.2 52.1492 13.208 52.1492 14.584C52.1492 17.528 50.8932 19 48.3812 19H46.3292C45.9212 19 45.7172 18.816 45.7172 18.448ZM48.0212 12.88V16.468C48.0212 16.636 48.0332 16.744 48.0572 16.792C48.0812 16.832 48.1532 16.852 48.2732 16.852C48.7132 16.852 49.0452 16.688 49.2692 16.36C49.5012 16.032 49.6172 15.488 49.6172 14.728C49.6172 13.96 49.4972 13.46 49.2572 13.228C49.0252 12.996 48.6532 12.88 48.1412 12.88H48.0212ZM57.5877 18.676C57.0837 18.972 56.4357 19.12 55.6437 19.12C54.8517 19.12 54.1837 18.852 53.6397 18.316C53.0957 17.772 52.8237 17.024 52.8237 16.072C52.8237 15.112 53.0837 14.34 53.6037 13.756C54.1317 13.172 54.7957 12.88 55.5957 12.88C56.3957 12.88 57.0117 13.084 57.4437 13.492C57.8837 13.9 58.1037 14.396 58.1037 14.98C58.1037 16.276 57.3597 16.924 55.8717 16.924H55.0437C55.0437 17.164 55.1077 17.332 55.2357 17.428C55.3717 17.516 55.5677 17.56 55.8237 17.56C56.3837 17.56 56.9157 17.432 57.4197 17.176C57.4277 17.168 57.4637 17.224 57.5277 17.344C57.7197 17.688 57.8157 17.98 57.8157 18.22C57.8157 18.452 57.7397 18.604 57.5877 18.676ZM56.0877 15.208C56.0877 14.872 55.9237 14.704 55.5957 14.704C55.4437 14.704 55.3117 14.752 55.1997 14.848C55.0957 14.936 55.0437 15.068 55.0437 15.244V15.616H55.6917C55.9557 15.616 56.0877 15.48 56.0877 15.208ZM61.4677 21.184C61.4677 21.24 61.1237 21.268 60.4357 21.268C59.7557 21.268 59.4157 21.24 59.4157 21.184V15.004H59.0077C58.8157 15.004 58.6837 14.828 58.6117 14.476C58.5877 14.364 58.5757 14.22 58.5757 14.044C58.5757 13.868 58.6317 13.66 58.7437 13.42C58.9037 13.068 59.1597 12.892 59.5117 12.892C59.7437 12.892 59.9557 12.948 60.1477 13.06C60.3477 13.164 60.4837 13.264 60.5557 13.36C60.6357 13.448 60.6757 13.5 60.6757 13.516C61.2117 13.1 61.7917 12.892 62.4157 12.892C63.0397 12.892 63.5757 13.136 64.0237 13.624C64.4717 14.104 64.6957 14.852 64.6957 15.868C64.6957 16.876 64.4717 17.66 64.0237 18.22C63.5757 18.772 63.0077 19.048 62.3197 19.048C62.0077 19.048 61.7237 19.032 61.4677 19V21.184ZM61.9597 14.992C61.8237 14.992 61.6917 15.036 61.5637 15.124V17.248C61.6997 17.264 61.8077 17.272 61.8877 17.272C61.9757 17.272 62.0437 17.272 62.0917 17.272C62.4197 17.24 62.5837 16.82 62.5837 16.012C62.5837 15.332 62.3757 14.992 61.9597 14.992ZM67.7279 18.904C67.7279 18.976 67.3199 19.012 66.5039 19.012C65.8639 19.004 65.5439 18.972 65.5439 18.916V10.744C65.5439 10.624 65.9319 10.564 66.7079 10.564C67.3879 10.588 67.7279 10.628 67.7279 10.684V18.904ZM69.3294 18.292C68.8334 17.74 68.5854 16.976 68.5854 16C68.5854 15.024 68.8334 14.26 69.3294 13.708C69.8334 13.156 70.5094 12.88 71.3574 12.88C72.2054 12.88 72.8774 13.156 73.3734 13.708C73.8694 14.26 74.1174 15.024 74.1174 16C74.1174 16.976 73.8694 17.74 73.3734 18.292C72.8774 18.844 72.2054 19.12 71.3574 19.12C70.5094 19.12 69.8334 18.844 69.3294 18.292ZM71.3574 14.884C70.9094 14.884 70.6854 15.252 70.6854 15.988C70.6854 16.724 70.9094 17.092 71.3574 17.092C71.8134 17.092 72.0414 16.724 72.0414 15.988C72.0414 15.252 71.8134 14.884 71.3574 14.884ZM74.5458 13.06C74.5458 12.972 74.9098 12.928 75.6378 12.928C76.3738 12.928 76.7538 12.968 76.7778 13.048L77.6418 15.88L78.4698 13.024C78.5018 12.96 78.7498 12.928 79.2138 12.928C80.2778 12.928 80.7858 12.98 80.7378 13.084L77.9178 21.112C77.9098 21.16 77.6898 21.184 77.2578 21.184C76.8338 21.184 76.4378 21.168 76.0698 21.136C75.7018 21.112 75.5258 21.08 75.5418 21.04L76.5858 18.52L74.5458 13.06ZM85.9471 18.676C85.4431 18.972 84.7951 19.12 84.0031 19.12C83.2111 19.12 82.5431 18.852 81.9991 18.316C81.4551 17.772 81.1831 17.024 81.1831 16.072C81.1831 15.112 81.4431 14.34 81.9631 13.756C82.4911 13.172 83.1551 12.88 83.9551 12.88C84.7551 12.88 85.3711 13.084 85.8031 13.492C86.2431 13.9 86.4631 14.396 86.4631 14.98C86.4631 16.276 85.7191 16.924 84.2311 16.924H83.4031C83.4031 17.164 83.4671 17.332 83.5951 17.428C83.7311 17.516 83.9271 17.56 84.1831 17.56C84.7431 17.56 85.2751 17.432 85.7791 17.176C85.7871 17.168 85.8231 17.224 85.8871 17.344C86.0791 17.688 86.1751 17.98 86.1751 18.22C86.1751 18.452 86.0991 18.604 85.9471 18.676ZM84.4471 15.208C84.4471 14.872 84.2831 14.704 83.9551 14.704C83.8031 14.704 83.6711 14.752 83.5591 14.848C83.4551 14.936 83.4031 15.068 83.4031 15.244V15.616H84.0511C84.3151 15.616 84.4471 15.48 84.4471 15.208ZM90.283 10.672C90.283 10.552 90.599 10.492 91.231 10.492C91.447 10.492 91.695 10.508 91.975 10.54C92.263 10.564 92.407 10.6 92.407 10.648V16.972H92.827C93.027 16.972 93.159 17.152 93.223 17.512C93.239 17.616 93.247 17.76 93.247 17.944C93.247 18.12 93.191 18.336 93.079 18.592C92.919 18.944 92.663 19.12 92.311 19.12C92.047 19.12 91.811 19.068 91.603 18.964C91.403 18.86 91.267 18.752 91.195 18.64L91.087 18.484C90.647 18.908 90.095 19.12 89.431 19.12C88.767 19.12 88.199 18.844 87.727 18.292C87.255 17.74 87.019 16.972 87.019 15.988C87.019 14.996 87.267 14.232 87.763 13.696C88.259 13.152 88.879 12.88 89.623 12.88C89.839 12.88 90.059 12.904 90.283 12.952V10.672ZM89.887 14.8C89.439 14.8 89.215 15.204 89.215 16.012C89.215 16.42 89.279 16.716 89.407 16.9C89.535 17.076 89.675 17.164 89.827 17.164C89.987 17.164 90.139 17.096 90.283 16.96V14.92C90.147 14.84 90.015 14.8 89.887 14.8ZM102.246 12.772C102.246 13.604 101.886 14.236 101.166 14.668C101.558 14.812 101.886 15.06 102.15 15.412C102.414 15.764 102.546 16.264 102.546 16.912C102.546 17.552 102.306 18.06 101.826 18.436C101.354 18.812 100.674 19 99.7859 19H96.9539C96.8179 19 96.7059 18.956 96.6179 18.868C96.5299 18.772 96.4859 18.648 96.4859 18.496V10.816C96.4859 10.728 96.4979 10.672 96.5219 10.648C96.5539 10.616 96.6139 10.6 96.7019 10.6H99.4379C101.31 10.6 102.246 11.324 102.246 12.772ZM98.7899 12.544V14.116H98.8499C99.6179 14.116 100.002 13.86 100.002 13.348C100.002 13.068 99.9259 12.864 99.7739 12.736C99.6299 12.608 99.3859 12.544 99.0419 12.544H98.7899ZM98.7899 15.532V17.092H99.0059C99.3499 17.092 99.6019 17.028 99.7619 16.9C99.9219 16.772 100.002 16.568 100.002 16.288C100.002 16.008 99.9259 15.812 99.7739 15.7C99.6299 15.588 99.3859 15.532 99.0419 15.532H98.7899ZM102.999 13.06C102.999 12.972 103.363 12.928 104.091 12.928C104.827 12.928 105.207 12.968 105.231 13.048L106.095 15.88L106.923 13.024C106.955 12.96 107.203 12.928 107.667 12.928C108.731 12.928 109.239 12.98 109.191 13.084L106.371 21.112C106.363 21.16 106.143 21.184 105.711 21.184C105.287 21.184 104.891 21.168 104.523 21.136C104.155 21.112 103.979 21.08 103.995 21.04L105.039 18.52L102.999 13.06ZM111.718 10.756C111.718 10.716 111.89 10.68 112.234 10.648C112.586 10.608 112.874 10.588 113.098 10.588C113.986 10.588 114.45 10.704 114.49 10.936L115.522 16.216L116.494 10.936C116.542 10.704 117.038 10.588 117.982 10.588C118.214 10.588 118.506 10.604 118.858 10.636C119.21 10.668 119.386 10.704 119.386 10.744L117.262 18.688C117.23 18.816 116.994 18.9 116.554 18.94C115.874 19.012 115.254 19.028 114.694 18.988C114.142 18.94 113.85 18.86 113.818 18.748L111.718 10.756ZM124.174 18.676C123.67 18.972 123.022 19.12 122.23 19.12C121.438 19.12 120.77 18.852 120.226 18.316C119.682 17.772 119.41 17.024 119.41 16.072C119.41 15.112 119.67 14.34 120.19 13.756C120.718 13.172 121.382 12.88 122.182 12.88C122.982 12.88 123.598 13.084 124.03 13.492C124.47 13.9 124.69 14.396 124.69 14.98C124.69 16.276 123.946 16.924 122.458 16.924H121.63C121.63 17.164 121.694 17.332 121.822 17.428C121.958 17.516 122.154 17.56 122.41 17.56C122.97 17.56 123.502 17.432 124.006 17.176C124.014 17.168 124.05 17.224 124.114 17.344C124.306 17.688 124.402 17.98 124.402 18.22C124.402 18.452 124.326 18.604 124.174 18.676ZM122.674 15.208C122.674 14.872 122.51 14.704 122.182 14.704C122.03 14.704 121.898 14.752 121.786 14.848C121.682 14.936 121.63 15.068 121.63 15.244V15.616H122.278C122.542 15.616 122.674 15.48 122.674 15.208ZM128.102 18.988C128.102 19.044 127.738 19.072 127.01 19.072C126.282 19.056 125.918 19.024 125.918 18.976V14.992H125.594C125.466 14.992 125.362 14.916 125.282 14.764C125.21 14.604 125.174 14.408 125.174 14.176C125.174 13.312 125.43 12.88 125.942 12.88C126.302 12.88 126.602 12.992 126.842 13.216C127.082 13.432 127.202 13.68 127.202 13.96C127.37 13.632 127.594 13.372 127.874 13.18C128.162 12.98 128.454 12.88 128.75 12.88C129.214 12.88 129.494 13 129.59 13.24C129.614 13.304 129.626 13.4 129.626 13.528C129.626 13.648 129.586 13.868 129.506 14.188C129.434 14.508 129.358 14.74 129.278 14.884C129.198 15.028 129.15 15.1 129.134 15.1C129.118 15.1 129.042 15.072 128.906 15.016C128.778 14.952 128.662 14.92 128.558 14.92C128.254 14.92 128.102 15.16 128.102 15.64V18.988ZM132.199 16.024C132.199 16.808 132.495 17.2 133.087 17.2C133.471 17.2 133.791 17.124 134.047 16.972C134.167 16.972 134.263 17.18 134.335 17.596C134.415 18.004 134.455 18.284 134.455 18.436C134.455 18.58 134.435 18.676 134.395 18.724C133.971 18.988 133.391 19.12 132.655 19.12C131.919 19.12 131.291 18.848 130.771 18.304C130.259 17.752 130.003 17.004 130.003 16.06C130.003 15.108 130.255 14.34 130.759 13.756C131.271 13.172 131.947 12.88 132.787 12.88C133.635 12.88 134.223 13.084 134.551 13.492C134.623 13.58 134.659 13.712 134.659 13.888C134.659 14.056 134.627 14.264 134.563 14.512C134.419 15.024 134.231 15.32 133.999 15.4C133.967 15.408 133.919 15.412 133.855 15.412C133.799 15.412 133.727 15.364 133.639 15.268C133.327 14.956 133.075 14.8 132.883 14.8C132.699 14.8 132.539 14.896 132.403 15.088C132.267 15.28 132.199 15.592 132.199 16.024ZM139.853 18.676C139.349 18.972 138.701 19.12 137.909 19.12C137.117 19.12 136.449 18.852 135.905 18.316C135.361 17.772 135.089 17.024 135.089 16.072C135.089 15.112 135.349 14.34 135.869 13.756C136.397 13.172 137.061 12.88 137.861 12.88C138.661 12.88 139.277 13.084 139.709 13.492C140.149 13.9 140.369 14.396 140.369 14.98C140.369 16.276 139.625 16.924 138.137 16.924H137.309C137.309 17.164 137.373 17.332 137.501 17.428C137.637 17.516 137.833 17.56 138.089 17.56C138.649 17.56 139.181 17.432 139.685 17.176C139.693 17.168 139.729 17.224 139.793 17.344C139.985 17.688 140.081 17.98 140.081 18.22C140.081 18.452 140.005 18.604 139.853 18.676ZM138.353 15.208C138.353 14.872 138.189 14.704 137.861 14.704C137.709 14.704 137.577 14.752 137.465 14.848C137.361 14.936 137.309 15.068 137.309 15.244V15.616H137.957C138.221 15.616 138.353 15.48 138.353 15.208ZM143.337 18.904C143.337 18.976 142.929 19.012 142.113 19.012C141.473 19.004 141.153 18.972 141.153 18.916V10.744C141.153 10.624 141.541 10.564 142.317 10.564C142.997 10.588 143.337 10.628 143.337 10.684V18.904Z" fill="white"/>
<path d="M37 25.05H13L25 4L37 25.05Z" fill="white"/>
</g>
<defs>
<filter id="filter0_d_31_17" x="0" y="0" width="158" height="38" filterUnits="userSpaceOnUse" color-interpolation-filters="sRGB">
<feFlood flood-opacity="0" result="BackgroundImageFix"/>
<feColorMatrix in="SourceAlpha" type="matrix" values="0 0 0 0 0 0 0 0 0 0 0 0 0 0 0 0 0 0 127 0" result="hardAlpha"/>
<feOffset dy="4"/>
<feGaussianBlur stdDeviation="2"/>
<feComposite in2="hardAlpha" operator="out"/>
<feColorMatrix type="matrix" values="0 0 0 0 0 0 0 0 0 0 0 0 0 0 0 0 0 0 0.25 0"/>
<feBlend mode="normal" in2="BackgroundImageFix" result="effect1_dropShadow_31_17"/>
<feBlend mode="normal" in="SourceGraphic" in2="effect1_dropShadow_31_17" result="shape"/>
</filter>
</defs>
</svg>
