<svg width="58" height="58" viewBox="0 0 58 58" fill="none" xmlns="http://www.w3.org/2000/svg">
<g filter="url(#filter0_d_21_54)">
<rect x="4" width="50" height="50" rx="8" fill="white"/>
<rect x="5" y="1" width="48" height="48" rx="7" stroke="#999999" stroke-width="2"/>
</g>
<path d="M30.983 23.689H33.102C33.1512 23.689 33.1983 23.6695 33.2332 23.6349C33.268 23.6002 33.2878 23.5532 33.288 23.504V21.617C33.288 21.5677 33.2684 21.5204 33.2335 21.4855C33.1987 21.4506 33.1513 21.431 33.102 21.431H30.983C30.934 21.431 30.8869 21.4505 30.8522 21.4852C30.8175 21.5199 30.798 21.5669 30.798 21.616V23.504C30.798 23.606 30.881 23.689 30.983 23.689ZM28.029 18.259H30.147C30.1963 18.259 30.2437 18.2394 30.2785 18.2045C30.3134 18.1696 30.333 18.1223 30.333 18.073V16.185C30.3328 16.1358 30.313 16.0888 30.2782 16.0541C30.2433 16.0195 30.1962 16 30.147 16H28.029C27.98 16 27.9329 16.0195 27.8982 16.0542C27.8635 16.0889 27.844 16.1359 27.844 16.185V18.073C27.844 18.175 27.926 18.259 28.029 18.259ZM28.029 20.974H30.147C30.1963 20.9737 30.2434 20.9541 30.2782 20.9192C30.3131 20.8844 30.3328 20.8372 30.333 20.788V18.901C30.3328 18.8518 30.313 18.8048 30.2782 18.7701C30.2433 18.7355 30.1962 18.716 30.147 18.716H28.029C27.98 18.716 27.9329 18.7355 27.8982 18.7702C27.8635 18.8049 27.844 18.8519 27.844 18.901V20.788C27.844 20.89 27.926 20.973 28.029 20.974ZM25.099 20.974H27.219C27.268 20.9735 27.3148 20.9536 27.3492 20.9188C27.3837 20.884 27.403 20.837 27.403 20.788V18.901C27.403 18.8519 27.3835 18.8049 27.3488 18.7702C27.3141 18.7355 27.2671 18.716 27.218 18.716H25.1C25.051 18.716 25.0039 18.7355 24.9692 18.7702C24.9345 18.8049 24.915 18.8519 24.915 18.901V20.788C24.915 20.89 24.998 20.973 25.1 20.974M22.136 20.974H24.255C24.3042 20.9737 24.3512 20.954 24.3859 20.9192C24.4206 20.8843 24.44 20.8372 24.44 20.788V18.901C24.44 18.8519 24.4205 18.8049 24.3858 18.7702C24.3511 18.7355 24.3041 18.716 24.255 18.716H22.136C22.0869 18.716 22.0397 18.7355 22.0048 18.7701C21.97 18.8048 21.9503 18.8518 21.95 18.901V20.788C21.95 20.89 22.034 20.973 22.136 20.974ZM28.029 23.689H30.147C30.1962 23.689 30.2433 23.6695 30.2782 23.6349C30.313 23.6002 30.3328 23.5532 30.333 23.504V21.617C30.333 21.5677 30.3134 21.5204 30.2785 21.4855C30.2437 21.4506 30.1963 21.431 30.147 21.431H28.029C27.98 21.431 27.9329 21.4505 27.8982 21.4852C27.8635 21.5199 27.844 21.5669 27.844 21.616V23.504C27.844 23.606 27.926 23.689 28.029 23.689ZM25.099 23.689H27.219C27.2679 23.6887 27.3147 23.6691 27.3492 23.6345C27.3837 23.5998 27.403 23.5529 27.403 23.504V21.617C27.4031 21.5927 27.3985 21.5686 27.3893 21.5461C27.3801 21.5236 27.3666 21.5032 27.3495 21.4859C27.3325 21.4686 27.3121 21.4549 27.2897 21.4455C27.2673 21.436 27.2433 21.4311 27.219 21.431H25.099C25.0501 21.4313 25.0033 21.4509 24.9688 21.4855C24.9344 21.5202 24.915 21.5671 24.915 21.616V23.504C24.915 23.606 24.998 23.689 25.1 23.689M22.136 23.689H24.255C24.3041 23.689 24.3511 23.6695 24.3858 23.6348C24.4205 23.6001 24.44 23.5531 24.44 23.504V21.617C24.4401 21.5927 24.4355 21.5686 24.4263 21.5461C24.4171 21.5236 24.4036 21.5032 24.3865 21.4859C24.3695 21.4686 24.3491 21.4549 24.3267 21.4455C24.3043 21.436 24.2803 21.4311 24.256 21.431H22.136C22.0867 21.431 22.0394 21.4506 22.0045 21.4855C21.9696 21.5204 21.95 21.5677 21.95 21.617V23.504C21.95 23.606 22.034 23.689 22.136 23.689ZM19.216 23.689H21.336C21.3849 23.6887 21.4317 23.6691 21.4662 23.6345C21.5007 23.5998 21.52 23.5529 21.52 23.504V21.617C21.5201 21.5927 21.5155 21.5686 21.5063 21.5461C21.4971 21.5236 21.4836 21.5032 21.4665 21.4859C21.4495 21.4686 21.4291 21.4549 21.4067 21.4455C21.3843 21.436 21.3603 21.4311 21.336 21.431H19.216C19.1671 21.4313 19.1203 21.4509 19.0858 21.4855C19.0514 21.5202 19.032 21.5671 19.032 21.616V23.504C19.032 23.606 19.113 23.689 19.216 23.689ZM40.763 22.501C40.698 22.45 40.091 21.991 38.809 21.991C38.471 21.992 38.133 22.021 37.799 22.078C37.551 20.378 36.146 19.548 36.083 19.512L35.739 19.313L35.513 19.64C35.229 20.078 35.023 20.562 34.901 21.07C34.671 22.04 34.811 22.952 35.304 23.731C34.709 24.063 33.754 24.144 33.56 24.151H17.751C17.5525 24.1513 17.3622 24.2301 17.2217 24.3703C17.0811 24.5104 17.0018 24.7005 17.001 24.899C16.9825 26.2838 17.217 27.6604 17.693 28.961C18.238 30.389 19.048 31.441 20.103 32.085C21.283 32.808 23.203 33.222 25.378 33.222C26.361 33.225 27.341 33.136 28.308 32.956C29.6509 32.7093 30.943 32.2398 32.131 31.567C33.111 31 33.991 30.279 34.741 29.431C35.993 28.013 36.739 26.434 37.294 25.031H37.515C38.887 25.031 39.73 24.482 40.195 24.022C40.504 23.729 40.745 23.372 40.902 22.976L41 22.688L40.763 22.501Z" fill="#2496ED"/>
<defs>
<filter id="filter0_d_21_54" x="0" y="0" width="58" height="58" filterUnits="userSpaceOnUse" color-interpolation-filters="sRGB">
<feFlood flood-opacity="0" result="BackgroundImageFix"/>
<feColorMatrix in="SourceAlpha" type="matrix" values="0 0 0 0 0 0 0 0 0 0 0 0 0 0 0 0 0 0 127 0" result="hardAlpha"/>
<feOffset dy="4"/>
<feGaussianBlur stdDeviation="2"/>
<feComposite in2="hardAlpha" operator="out"/>
<feColorMatrix type="matrix" values="0 0 0 0 0 0 0 0 0 0 0 0 0 0 0 0 0 0 0.25 0"/>
<feBlend mode="normal" in2="BackgroundImageFix" result="effect1_dropShadow_21_54"/>
<feBlend mode="normal" in="SourceGraphic" in2="effect1_dropShadow_21_54" result="shape"/>
</filter>
</defs>
</svg>
