<svg width="58" height="58" viewBox="0 0 58 58" fill="none" xmlns="http://www.w3.org/2000/svg">
<g filter="url(#filter0_d_21_55)">
<rect x="4" width="50" height="50" rx="8" fill="white"/>
<rect x="5" y="1" width="48" height="48" rx="7" stroke="#999999" stroke-width="2"/>
</g>
<path d="M19.7524 36.9998H18.7774C18.7523 36.9348 18.7289 36.8691 18.7074 36.8028C18.4924 36.1368 18.1134 35.3128 18.0154 34.6488C17.8694 33.6648 18.7954 33.6098 19.3894 33.1838C20.3044 32.5238 21.0244 32.1588 22.0164 31.5638C22.3114 31.3848 23.1984 30.9398 23.2974 30.7348C23.4984 30.3268 22.9524 29.7528 22.8074 29.4348C22.5824 28.9278 22.4624 28.4978 22.4314 27.9998C21.6074 27.8698 20.9764 27.3728 20.5874 26.8148C19.9574 25.8898 19.5214 24.1798 20.0624 22.8788C20.1074 22.7758 20.3164 22.5738 20.3474 22.4158C20.4074 22.1078 20.2424 21.6958 20.2274 21.3678C20.1674 19.6758 20.5114 18.2178 21.6524 17.7078C22.1154 15.8678 23.7654 15.2548 25.3254 14.3408C25.9054 13.9988 26.5494 13.7788 27.2154 13.5338C29.5874 12.6568 33.2424 12.8218 35.2094 14.3168C36.0454 14.9498 37.3854 16.2868 37.8654 17.2558C39.1274 19.8108 39.0354 24.0808 38.1524 27.1898C38.0324 27.6108 37.8624 28.2218 37.6194 28.7228C37.4514 29.0728 36.9304 29.7728 36.9944 30.0828C37.0584 30.3968 38.1844 31.2528 38.4264 31.4778C38.8604 31.8998 39.6864 32.4528 39.7504 32.9778C39.8204 33.5348 39.5024 34.3138 39.3404 34.8528C39.1234 35.5738 38.9044 36.2938 38.6864 36.9838H19.7504L19.7524 36.9998ZM30.8564 33.4598C30.3114 33.1598 29.4954 32.8378 28.7914 32.7028C27.9214 32.5388 28.0114 33.8908 28.0414 34.6968C28.0714 35.3398 28.4014 36.0128 28.5514 36.4408C28.6274 36.6378 28.6414 36.8508 28.8074 36.8898C29.1074 36.9578 30.0974 36.5638 30.3824 36.4108C30.9824 36.0828 31.4464 35.5668 31.9564 35.2218C31.9724 35.0518 31.9724 34.8818 31.9864 34.7138C31.6456 34.5438 31.2721 34.4493 30.8914 34.4368C31.2054 34.2868 31.6414 34.2868 31.9264 34.1048L31.9424 33.9118C31.4464 33.8818 31.2524 33.6578 30.9214 33.4758L30.8564 33.4598ZM38.3104 36.3948C38.4951 35.8191 38.6503 35.2343 38.7754 34.6428C38.8354 34.3558 38.9904 33.7248 38.9534 33.4668C38.8944 33.0078 38.2694 32.6678 37.9494 32.3808C37.3654 31.8558 36.9994 31.4058 36.3894 30.9118C36.1404 31.2868 35.6094 31.5268 35.4064 31.8258C36.8534 31.1368 37.1164 34.4508 36.5474 35.5158C36.6374 35.8448 36.9384 35.9658 37.0614 36.2508L36.9754 36.4168H38.2654C38.2784 36.4168 38.2954 36.4168 38.3094 36.4308L38.3104 36.3948ZM31.6764 36.3828C31.6264 36.3088 31.5764 36.2478 31.5264 36.1738L31.2254 36.3688H31.6754L31.6764 36.3828ZM34.4464 36.3828C34.4544 36.1738 34.4644 35.9788 34.4764 35.7848C33.9464 35.8138 33.6514 35.3048 33.2804 35.2578C32.9564 35.2128 32.6804 35.6188 32.2604 35.4528C32.1654 35.5578 32.0774 35.6798 31.9764 35.7688C32.1304 35.9488 32.2714 36.1438 32.4004 36.3528H33.2154C33.2294 36.1888 33.3504 36.0678 33.5154 36.0678C33.6804 36.0678 33.7994 36.1888 33.7994 36.3378H34.4594L34.4464 36.3828ZM36.5624 36.3828C36.2484 35.9038 35.6154 35.4848 34.8824 35.8278L34.8524 36.3688H36.5624V36.3828ZM28.0524 36.3828L27.9484 36.0388C27.7234 35.3188 27.5884 34.7788 27.5434 34.3588C26.6294 33.9228 25.6684 33.4888 24.8894 32.9328C24.7394 32.8278 23.7804 31.5828 23.6594 31.6278C21.9204 32.3038 20.3004 33.4878 18.8454 34.6118C19.1014 35.1688 19.3254 35.7528 19.5354 36.3518H28.0404L28.0524 36.3828ZM36.3174 34.2698C36.2884 33.7578 36.1534 32.7098 35.8374 32.5298C35.1774 32.1398 33.9914 33.3098 33.4974 33.4728C33.5424 33.6228 33.6324 33.7438 33.6474 33.9528C33.9324 33.8788 34.2924 33.9238 34.5454 34.0448C34.2464 34.0748 33.9164 34.0748 33.7214 34.2088C33.6474 34.4038 33.7374 34.6888 33.6924 34.9728C34.3824 35.1698 35.1924 35.2758 36.0774 35.3048C36.2414 35.0778 36.3024 34.6598 36.2884 34.2228L36.3174 34.2698ZM32.2374 33.9098C32.1934 34.2848 32.2834 34.4198 32.3574 34.8528C33.6174 35.2438 33.3914 33.1128 32.2224 33.8938L32.2374 33.9098ZM25.6404 32.4998C25.1904 32.9568 26.9104 33.5818 27.4544 33.6148C27.4544 33.3248 27.6194 33.0508 27.5894 32.8448C26.9394 32.7268 26.0874 32.8028 25.6444 32.4978L25.6404 32.4998ZM31.2054 32.7148C31.2054 32.7578 31.1444 32.7448 31.1374 32.7788C31.7174 33.2298 32.1514 33.3238 32.9394 33.2888C33.2934 33.0268 33.6094 32.7258 33.9824 32.4818C33.1274 32.5558 32.0514 33.0888 31.2084 32.7118L31.2054 32.7148ZM34.6254 14.9888C33.0194 14.0828 30.2754 13.3978 28.5494 14.2578C27.1694 14.9498 25.2794 16.0978 24.6504 17.5498C25.2504 18.9518 24.4844 20.2358 24.4244 21.6588C24.4064 22.4158 24.7844 23.0788 24.8154 23.9008C24.6154 24.2388 23.9904 24.2808 23.5554 24.2568C23.4094 23.5278 23.1554 22.7078 22.4004 22.6268C21.3364 22.5108 20.5554 23.3908 20.5104 24.3098C20.4504 25.3898 21.3434 27.1738 22.5954 27.0548C23.0834 27.0088 23.2034 26.5148 23.7344 26.5148C24.0194 27.0848 23.2894 27.2648 23.2114 27.6688C23.1954 27.7738 23.2714 28.1798 23.3154 28.3738C23.5484 29.3178 24.0594 30.5338 24.5604 31.2538C25.1954 32.1538 26.4444 32.3048 27.7894 32.3948C28.0294 31.8698 28.9144 31.9148 29.4954 32.0488C28.8044 31.7788 28.1594 31.1038 27.6204 30.5198C27.0054 29.8438 26.3904 29.1098 26.3594 28.2398C27.5144 29.8438 28.4594 31.2398 30.5594 31.9438C32.1494 32.4688 34.0094 31.6898 35.2234 30.8348C35.7334 30.4758 36.0344 29.9048 36.3934 29.3958C37.7434 27.4598 38.3734 24.6858 38.2394 22.0018C38.1794 20.8908 38.1794 19.7808 37.8034 19.0468C37.4144 18.2658 36.1084 17.5758 35.3284 18.2658C35.1784 17.5018 35.9584 17.0358 36.8734 17.3058C36.2134 16.4518 35.5374 15.4478 34.6074 14.9218L34.6254 14.9888ZM30.4604 27.8958C31.0754 29.4398 33.1844 29.2588 34.9654 29.2188C34.8814 29.4128 34.7094 29.6538 34.5004 29.7338C33.9304 29.9658 32.3554 30.1418 31.5634 29.7218C31.0574 29.4518 30.7394 28.8488 30.4614 28.4948C30.3244 28.3228 29.6664 27.8868 30.4494 27.8858L30.4604 27.8958ZM30.6244 27.0258C31.5174 27.4898 33.1444 27.5428 34.3554 27.5058C34.4214 27.7728 34.4214 28.0988 34.4234 28.4188C32.8734 28.4988 31.0374 28.1148 30.6294 27.0238H30.6244V27.0258ZM37.2994 26.4398C36.8264 27.3398 36.1544 28.3368 34.7604 28.3678C34.7374 28.0838 34.7154 27.6328 34.7604 27.4638C35.8244 27.3608 36.4874 26.8178 37.3034 26.4468L37.2994 26.4398ZM36.6504 25.7728C35.6304 26.4328 34.4964 27.1478 32.8264 26.9828C32.4754 26.6728 32.3414 25.9828 32.6864 25.5248C32.8674 25.8378 32.7464 26.4098 33.2564 26.4948C34.2004 26.6598 35.2944 25.9158 35.9864 25.6548C36.4064 24.9418 35.9404 24.6788 35.5664 24.2218C34.7844 23.2918 33.7364 22.1218 33.7644 20.7118C34.0784 20.4878 34.1104 21.0578 34.1554 21.1618C34.5594 22.1218 35.5794 23.3368 36.3294 24.1618C36.5094 24.3718 36.8094 24.5518 36.8394 24.6858C36.9314 25.0758 36.5854 25.5398 36.6304 25.7958L36.6504 25.7728ZM23.2114 25.0978C22.8974 24.9138 22.8184 24.1078 22.4434 24.0878C21.9084 24.0578 22.0054 25.1378 22.0074 25.7678C21.6374 25.4378 21.5724 24.4028 21.8434 23.8778C21.5354 23.7278 21.3984 24.0418 21.2254 24.1618C21.4454 22.5718 23.5654 23.4278 23.2154 25.1218L23.2114 25.0978ZM21.5934 18.9948C20.9084 19.7508 21.0534 21.1688 21.1344 22.1828C22.3784 21.3978 24.0324 22.2428 24.0174 23.5768C24.6124 23.5608 24.2404 22.8328 24.1324 22.3618C23.7794 20.8338 24.7244 19.1748 24.1734 17.7718C23.1094 17.8558 22.2344 18.2918 21.5954 18.9868L21.5934 18.9948ZM30.7134 20.1078C31.0204 20.6698 31.1174 21.2558 31.5534 21.6778C31.7484 21.8678 32.1274 22.1018 31.9404 22.6278C31.8954 22.7488 31.5754 23.0188 31.3894 23.0778C30.7154 23.2728 29.1354 23.1078 29.6684 22.2678C30.2314 22.2828 30.9824 22.6278 31.4004 22.2228C31.0864 21.6988 30.5154 20.6928 30.7264 20.0928L30.7134 20.1078ZM36.9114 20.0948H36.9794C37.3094 20.7628 37.5794 21.4698 37.9834 22.0598C37.7134 22.6878 35.9304 23.2498 35.9604 22.1168C36.3504 21.9468 37.0104 22.0818 37.3554 21.8668C37.1624 21.3108 36.8754 20.8608 36.9214 20.0958L36.9114 20.0948ZM29.9844 18.4778C28.5624 18.1478 27.8534 19.0698 27.4244 20.0308C27.0404 19.9368 27.1934 19.4158 27.2894 19.1478C27.5444 18.4468 28.5694 17.5148 29.4084 17.6418C29.7674 17.6988 30.2564 18.0278 29.9844 18.4758V18.4778ZM26.5224 14.5928C24.9624 15.0328 22.9624 16.1668 22.3224 17.5668C22.8174 17.4968 23.1624 17.2458 23.6524 17.2158C23.8384 17.1998 24.0804 17.2898 24.2934 17.2308C24.7174 17.1268 25.0734 16.1658 25.3954 15.8208C25.7054 15.4758 26.0804 15.3248 26.3354 15.0108C26.5024 14.9208 26.7444 14.9368 26.7554 14.6808C26.6824 14.6058 26.6054 14.5458 26.5234 14.5758L26.5224 14.5928Z" fill="#D24939"/>
<defs>
<filter id="filter0_d_21_55" x="0" y="0" width="58" height="58" filterUnits="userSpaceOnUse" color-interpolation-filters="sRGB">
<feFlood flood-opacity="0" result="BackgroundImageFix"/>
<feColorMatrix in="SourceAlpha" type="matrix" values="0 0 0 0 0 0 0 0 0 0 0 0 0 0 0 0 0 0 127 0" result="hardAlpha"/>
<feOffset dy="4"/>
<feGaussianBlur stdDeviation="2"/>
<feComposite in2="hardAlpha" operator="out"/>
<feColorMatrix type="matrix" values="0 0 0 0 0 0 0 0 0 0 0 0 0 0 0 0 0 0 0.25 0"/>
<feBlend mode="normal" in2="BackgroundImageFix" result="effect1_dropShadow_21_55"/>
<feBlend mode="normal" in="SourceGraphic" in2="effect1_dropShadow_21_55" result="shape"/>
</filter>
</defs>
</svg>
