<svg width="58" height="58" viewBox="0 0 58 58" fill="none" xmlns="http://www.w3.org/2000/svg">
<g filter="url(#filter0_d_21_46)">
<rect x="4" width="50" height="50" rx="8" fill="white"/>
<rect x="5" y="1" width="48" height="48" rx="7" stroke="#999999" stroke-width="2"/>
</g>
<path d="M33.405 18.6499C33.29 18.6499 33.212 18.6639 33.131 18.6829V18.6959H33.145C33.199 18.7999 33.291 18.8759 33.359 18.9689C33.413 19.0759 33.459 19.1829 33.513 19.2889L33.527 19.2739C33.621 19.2079 33.667 19.1019 33.667 18.9409C33.627 18.8939 33.621 18.8469 33.587 18.8009C33.547 18.7339 33.461 18.7009 33.407 18.6479L33.405 18.6499ZM22.77 31.8439H21.843C21.8169 30.3707 21.7268 28.8993 21.573 27.4339H21.565L20.155 31.8439H19.45L18.05 27.4339H18.04C17.9305 28.9016 17.8655 30.3723 17.845 31.8439H17C17.055 29.8779 17.192 28.0339 17.41 26.3139H18.56L19.895 30.3779H19.903L21.25 26.3139H22.345C22.587 28.3289 22.729 30.1739 22.773 31.8439H22.77ZM26.787 27.7639C26.409 29.8089 25.911 31.2969 25.295 32.2239C24.813 32.9399 24.285 33.2969 23.712 33.2969C23.559 33.2969 23.372 33.2509 23.146 33.1589V32.6649C23.256 32.6819 23.386 32.6909 23.532 32.6909C23.8 32.6909 24.015 32.6159 24.179 32.4689C24.376 32.2889 24.474 32.0869 24.474 31.8639C24.474 31.7089 24.397 31.3939 24.244 30.9199L23.23 27.7639H24.14L24.867 30.1239C25.031 30.6599 25.1 31.0339 25.072 31.2469C25.472 30.1829 25.75 29.0199 25.907 27.7639H26.787ZM39.112 31.8439H36.482V26.3139H37.367V31.1639H39.112V31.8439ZM35.792 31.9789L34.776 31.4789C34.866 31.4029 34.953 31.3209 35.031 31.2289C35.464 30.7229 35.679 29.9709 35.679 28.9759C35.679 27.1459 34.961 26.2299 33.524 26.2299C32.82 26.2299 32.27 26.4619 31.874 26.9269C31.444 27.4349 31.228 28.1829 31.228 29.1719C31.228 30.1439 31.418 30.8579 31.802 31.3119C32.152 31.7219 32.679 31.9269 33.385 31.9269C33.649 31.9269 33.891 31.8939 34.11 31.8289L35.435 32.6009L35.795 31.9789H35.792ZM32.5 30.7369C32.275 30.3769 32.163 29.7969 32.163 29.0009C32.163 27.6079 32.587 26.9109 33.433 26.9109C33.876 26.9109 34.203 27.0779 34.41 27.4109C34.634 27.7729 34.746 28.3469 34.746 29.1339C34.746 30.5379 34.322 31.2419 33.476 31.2419C33.031 31.2419 32.706 31.0749 32.498 30.7419L32.5 30.7369ZM30.842 30.3119C30.842 30.7819 30.67 31.1679 30.326 31.4679C29.982 31.7679 29.523 31.9179 28.942 31.9179C28.399 31.9179 27.878 31.7459 27.369 31.4029L27.606 30.9269C28.044 31.1469 28.439 31.2549 28.796 31.2549C29.128 31.2549 29.389 31.1819 29.579 31.0349C29.674 30.9633 29.7506 30.8703 29.8028 30.7634C29.8549 30.6565 29.881 30.5388 29.879 30.4199C29.879 30.0899 29.649 29.8099 29.231 29.5749C28.843 29.3619 28.068 28.9179 28.068 28.9179C27.646 28.6109 27.436 28.2819 27.436 27.7409C27.436 27.2909 27.593 26.9309 27.906 26.6559C28.221 26.3779 28.626 26.2409 29.126 26.2409C29.638 26.2409 30.106 26.3769 30.526 26.6509L30.313 27.1269C29.9774 26.9795 29.6155 26.9013 29.249 26.8969C28.966 26.8969 28.747 26.9649 28.595 27.1029C28.5179 27.1668 28.4557 27.2469 28.4128 27.3374C28.37 27.4279 28.3475 27.5268 28.347 27.6269C28.347 27.9549 28.581 28.2369 29.013 28.4769C29.406 28.6919 30.2 29.1469 30.2 29.1469C30.633 29.4519 30.848 29.7769 30.848 30.3149L30.842 30.3119ZM40.224 24.4599C39.689 24.4459 39.274 24.4999 38.927 24.6479C38.827 24.6879 38.667 24.6879 38.653 24.8149C38.708 24.8679 38.716 24.9549 38.763 25.0289C38.843 25.1629 38.981 25.3419 39.109 25.4359C39.249 25.5459 39.389 25.6519 39.536 25.7459C39.796 25.9059 40.091 26.0009 40.346 26.1619C40.491 26.2559 40.639 26.3749 40.786 26.4749C40.859 26.5249 40.906 26.6149 41 26.6469V26.6269C40.954 26.5669 40.94 26.4799 40.895 26.4129C40.828 26.3459 40.761 26.2859 40.695 26.2199C40.4987 25.9612 40.2644 25.7336 40 25.5449C39.786 25.3989 39.318 25.1949 39.23 24.9499L39.217 24.9359C39.363 24.9229 39.537 24.8699 39.677 24.8299C39.904 24.7699 40.112 24.7829 40.347 24.7239C40.453 24.6969 40.56 24.6639 40.667 24.6299V24.5699C40.547 24.4499 40.457 24.2869 40.333 24.1749C39.9869 23.8724 39.6178 23.5972 39.229 23.3519C39.019 23.2179 38.753 23.1319 38.532 23.0179C38.452 22.9779 38.318 22.9579 38.272 22.8909C38.152 22.7449 38.082 22.5509 37.997 22.3769C37.8006 21.996 37.6182 21.6081 37.45 21.2139C37.33 20.9519 37.257 20.6909 37.11 20.4509C36.42 19.3139 35.673 18.6249 34.524 17.9509C34.277 17.8109 33.981 17.7509 33.668 17.6769C33.501 17.6689 33.334 17.6569 33.168 17.6499C33.058 17.6029 32.952 17.4759 32.858 17.4149C32.478 17.1749 31.494 16.6549 31.214 17.3429C31.034 17.7769 31.481 18.2049 31.636 18.4249C31.751 18.5779 31.896 18.7529 31.976 18.9249C32.023 19.0409 32.036 19.1599 32.083 19.2809C32.189 19.5749 32.29 19.9029 32.43 20.1779C32.503 20.3179 32.583 20.4649 32.677 20.5909C32.731 20.6639 32.823 20.6979 32.844 20.8179C32.75 20.9539 32.744 21.1519 32.69 21.3179C32.45 22.0749 32.544 23.0109 32.884 23.5679C32.991 23.7339 33.246 24.1019 33.587 23.9609C33.887 23.8409 33.821 23.4609 33.907 23.1259C33.927 23.0459 33.914 22.9929 33.955 22.9389V22.9539C34.049 23.1419 34.143 23.3209 34.229 23.5089C34.435 23.8369 34.795 24.1769 35.096 24.4039C35.256 24.5239 35.383 24.7319 35.583 24.8059V24.7859H35.568C35.525 24.7279 35.468 24.6999 35.414 24.6529C35.2872 24.5288 35.1702 24.3951 35.064 24.2529C34.7822 23.868 34.5324 23.4606 34.317 23.0349C34.207 22.8249 34.115 22.5989 34.027 22.3919C33.987 22.3119 33.987 22.1919 33.92 22.1519C33.82 22.2979 33.673 22.4249 33.6 22.6049C33.473 22.8929 33.46 23.2469 33.412 23.6149C33.385 23.6219 33.398 23.6149 33.385 23.6289C33.171 23.5769 33.098 23.3549 33.018 23.1689C32.818 22.6939 32.785 21.9309 32.958 21.3839C33.005 21.2439 33.205 20.8019 33.125 20.6679C33.083 20.5409 32.951 20.4679 32.878 20.3649C32.7841 20.2309 32.7037 20.0878 32.638 19.9379C32.478 19.5639 32.398 19.1499 32.224 18.7759C32.144 18.6029 32.004 18.4219 31.89 18.2629C31.763 18.0829 31.623 17.9559 31.522 17.7429C31.489 17.6699 31.442 17.5489 31.495 17.4689C31.509 17.4149 31.537 17.3939 31.589 17.3789C31.677 17.3069 31.924 17.4009 32.011 17.4409C32.258 17.5409 32.466 17.6349 32.673 17.7749C32.767 17.8409 32.868 17.9679 32.988 18.0009H33.128C33.342 18.0479 33.583 18.0149 33.783 18.0739C34.138 18.1879 34.458 18.3539 34.745 18.5339C35.6293 19.0988 36.3486 19.8875 36.83 20.8199C36.91 20.9739 36.945 21.1149 37.018 21.2749C37.158 21.6049 37.331 21.9379 37.473 22.2569C37.613 22.5719 37.748 22.8929 37.949 23.1539C38.049 23.2939 38.451 23.3669 38.631 23.4399C38.764 23.4999 38.971 23.5549 39.091 23.6279C39.321 23.7679 39.545 23.9279 39.761 24.0819C39.871 24.1579 40.204 24.3249 40.224 24.4599Z" fill="#4479A1"/>
<g filter="url(#filter1_d_21_46)">
<rect x="4" width="50" height="50" rx="8" fill="white"/>
<rect x="5" y="1" width="48" height="48" rx="7" stroke="#999999" stroke-width="2"/>
</g>
<path d="M33.405 18.6499C33.29 18.6499 33.212 18.6639 33.131 18.6829V18.6959H33.145C33.199 18.7999 33.291 18.8759 33.359 18.9689C33.413 19.0759 33.459 19.1829 33.513 19.2889L33.527 19.2739C33.621 19.2079 33.667 19.1019 33.667 18.9409C33.627 18.8939 33.621 18.8469 33.587 18.8009C33.547 18.7339 33.461 18.7009 33.407 18.6479L33.405 18.6499ZM22.77 31.8439H21.843C21.8169 30.3707 21.7268 28.8993 21.573 27.4339H21.565L20.155 31.8439H19.45L18.05 27.4339H18.04C17.9305 28.9016 17.8655 30.3723 17.845 31.8439H17C17.055 29.8779 17.192 28.0339 17.41 26.3139H18.56L19.895 30.3779H19.903L21.25 26.3139H22.345C22.587 28.3289 22.729 30.1739 22.773 31.8439H22.77ZM26.787 27.7639C26.409 29.8089 25.911 31.2969 25.295 32.2239C24.813 32.9399 24.285 33.2969 23.712 33.2969C23.559 33.2969 23.372 33.2509 23.146 33.1589V32.6649C23.256 32.6819 23.386 32.6909 23.532 32.6909C23.8 32.6909 24.015 32.6159 24.179 32.4689C24.376 32.2889 24.474 32.0869 24.474 31.8639C24.474 31.7089 24.397 31.3939 24.244 30.9199L23.23 27.7639H24.14L24.867 30.1239C25.031 30.6599 25.1 31.0339 25.072 31.2469C25.472 30.1829 25.75 29.0199 25.907 27.7639H26.787ZM39.112 31.8439H36.482V26.3139H37.367V31.1639H39.112V31.8439ZM35.792 31.9789L34.776 31.4789C34.866 31.4029 34.953 31.3209 35.031 31.2289C35.464 30.7229 35.679 29.9709 35.679 28.9759C35.679 27.1459 34.961 26.2299 33.524 26.2299C32.82 26.2299 32.27 26.4619 31.874 26.9269C31.444 27.4349 31.228 28.1829 31.228 29.1719C31.228 30.1439 31.418 30.8579 31.802 31.3119C32.152 31.7219 32.679 31.9269 33.385 31.9269C33.649 31.9269 33.891 31.8939 34.11 31.8289L35.435 32.6009L35.795 31.9789H35.792ZM32.5 30.7369C32.275 30.3769 32.163 29.7969 32.163 29.0009C32.163 27.6079 32.587 26.9109 33.433 26.9109C33.876 26.9109 34.203 27.0779 34.41 27.4109C34.634 27.7729 34.746 28.3469 34.746 29.1339C34.746 30.5379 34.322 31.2419 33.476 31.2419C33.031 31.2419 32.706 31.0749 32.498 30.7419L32.5 30.7369ZM30.842 30.3119C30.842 30.7819 30.67 31.1679 30.326 31.4679C29.982 31.7679 29.523 31.9179 28.942 31.9179C28.399 31.9179 27.878 31.7459 27.369 31.4029L27.606 30.9269C28.044 31.1469 28.439 31.2549 28.796 31.2549C29.128 31.2549 29.389 31.1819 29.579 31.0349C29.674 30.9633 29.7506 30.8703 29.8028 30.7634C29.8549 30.6565 29.881 30.5388 29.879 30.4199C29.879 30.0899 29.649 29.8099 29.231 29.5749C28.843 29.3619 28.068 28.9179 28.068 28.9179C27.646 28.6109 27.436 28.2819 27.436 27.7409C27.436 27.2909 27.593 26.9309 27.906 26.6559C28.221 26.3779 28.626 26.2409 29.126 26.2409C29.638 26.2409 30.106 26.3769 30.526 26.6509L30.313 27.1269C29.9774 26.9795 29.6155 26.9013 29.249 26.8969C28.966 26.8969 28.747 26.9649 28.595 27.1029C28.5179 27.1668 28.4557 27.2469 28.4128 27.3374C28.37 27.4279 28.3475 27.5268 28.347 27.6269C28.347 27.9549 28.581 28.2369 29.013 28.4769C29.406 28.6919 30.2 29.1469 30.2 29.1469C30.633 29.4519 30.848 29.7769 30.848 30.3149L30.842 30.3119ZM40.224 24.4599C39.689 24.4459 39.274 24.4999 38.927 24.6479C38.827 24.6879 38.667 24.6879 38.653 24.8149C38.708 24.8679 38.716 24.9549 38.763 25.0289C38.843 25.1629 38.981 25.3419 39.109 25.4359C39.249 25.5459 39.389 25.6519 39.536 25.7459C39.796 25.9059 40.091 26.0009 40.346 26.1619C40.491 26.2559 40.639 26.3749 40.786 26.4749C40.859 26.5249 40.906 26.6149 41 26.6469V26.6269C40.954 26.5669 40.94 26.4799 40.895 26.4129C40.828 26.3459 40.761 26.2859 40.695 26.2199C40.4987 25.9612 40.2644 25.7336 40 25.5449C39.786 25.3989 39.318 25.1949 39.23 24.9499L39.217 24.9359C39.363 24.9229 39.537 24.8699 39.677 24.8299C39.904 24.7699 40.112 24.7829 40.347 24.7239C40.453 24.6969 40.56 24.6639 40.667 24.6299V24.5699C40.547 24.4499 40.457 24.2869 40.333 24.1749C39.9869 23.8724 39.6178 23.5972 39.229 23.3519C39.019 23.2179 38.753 23.1319 38.532 23.0179C38.452 22.9779 38.318 22.9579 38.272 22.8909C38.152 22.7449 38.082 22.5509 37.997 22.3769C37.8006 21.996 37.6182 21.6081 37.45 21.2139C37.33 20.9519 37.257 20.6909 37.11 20.4509C36.42 19.3139 35.673 18.6249 34.524 17.9509C34.277 17.8109 33.981 17.7509 33.668 17.6769C33.501 17.6689 33.334 17.6569 33.168 17.6499C33.058 17.6029 32.952 17.4759 32.858 17.4149C32.478 17.1749 31.494 16.6549 31.214 17.3429C31.034 17.7769 31.481 18.2049 31.636 18.4249C31.751 18.5779 31.896 18.7529 31.976 18.9249C32.023 19.0409 32.036 19.1599 32.083 19.2809C32.189 19.5749 32.29 19.9029 32.43 20.1779C32.503 20.3179 32.583 20.4649 32.677 20.5909C32.731 20.6639 32.823 20.6979 32.844 20.8179C32.75 20.9539 32.744 21.1519 32.69 21.3179C32.45 22.0749 32.544 23.0109 32.884 23.5679C32.991 23.7339 33.246 24.1019 33.587 23.9609C33.887 23.8409 33.821 23.4609 33.907 23.1259C33.927 23.0459 33.914 22.9929 33.955 22.9389V22.9539C34.049 23.1419 34.143 23.3209 34.229 23.5089C34.435 23.8369 34.795 24.1769 35.096 24.4039C35.256 24.5239 35.383 24.7319 35.583 24.8059V24.7859H35.568C35.525 24.7279 35.468 24.6999 35.414 24.6529C35.2872 24.5288 35.1702 24.3951 35.064 24.2529C34.7822 23.868 34.5324 23.4606 34.317 23.0349C34.207 22.8249 34.115 22.5989 34.027 22.3919C33.987 22.3119 33.987 22.1919 33.92 22.1519C33.82 22.2979 33.673 22.4249 33.6 22.6049C33.473 22.8929 33.46 23.2469 33.412 23.6149C33.385 23.6219 33.398 23.6149 33.385 23.6289C33.171 23.5769 33.098 23.3549 33.018 23.1689C32.818 22.6939 32.785 21.9309 32.958 21.3839C33.005 21.2439 33.205 20.8019 33.125 20.6679C33.083 20.5409 32.951 20.4679 32.878 20.3649C32.7841 20.2309 32.7037 20.0878 32.638 19.9379C32.478 19.5639 32.398 19.1499 32.224 18.7759C32.144 18.6029 32.004 18.4219 31.89 18.2629C31.763 18.0829 31.623 17.9559 31.522 17.7429C31.489 17.6699 31.442 17.5489 31.495 17.4689C31.509 17.4149 31.537 17.3939 31.589 17.3789C31.677 17.3069 31.924 17.4009 32.011 17.4409C32.258 17.5409 32.466 17.6349 32.673 17.7749C32.767 17.8409 32.868 17.9679 32.988 18.0009H33.128C33.342 18.0479 33.583 18.0149 33.783 18.0739C34.138 18.1879 34.458 18.3539 34.745 18.5339C35.6293 19.0988 36.3486 19.8875 36.83 20.8199C36.91 20.9739 36.945 21.1149 37.018 21.2749C37.158 21.6049 37.331 21.9379 37.473 22.2569C37.613 22.5719 37.748 22.8929 37.949 23.1539C38.049 23.2939 38.451 23.3669 38.631 23.4399C38.764 23.4999 38.971 23.5549 39.091 23.6279C39.321 23.7679 39.545 23.9279 39.761 24.0819C39.871 24.1579 40.204 24.3249 40.224 24.4599Z" fill="#4479A1"/>
<defs>
<filter id="filter0_d_21_46" x="0" y="0" width="58" height="58" filterUnits="userSpaceOnUse" color-interpolation-filters="sRGB">
<feFlood flood-opacity="0" result="BackgroundImageFix"/>
<feColorMatrix in="SourceAlpha" type="matrix" values="0 0 0 0 0 0 0 0 0 0 0 0 0 0 0 0 0 0 127 0" result="hardAlpha"/>
<feOffset dy="4"/>
<feGaussianBlur stdDeviation="2"/>
<feComposite in2="hardAlpha" operator="out"/>
<feColorMatrix type="matrix" values="0 0 0 0 0 0 0 0 0 0 0 0 0 0 0 0 0 0 0.25 0"/>
<feBlend mode="normal" in2="BackgroundImageFix" result="effect1_dropShadow_21_46"/>
<feBlend mode="normal" in="SourceGraphic" in2="effect1_dropShadow_21_46" result="shape"/>
</filter>
<filter id="filter1_d_21_46" x="0" y="0" width="58" height="58" filterUnits="userSpaceOnUse" color-interpolation-filters="sRGB">
<feFlood flood-opacity="0" result="BackgroundImageFix"/>
<feColorMatrix in="SourceAlpha" type="matrix" values="0 0 0 0 0 0 0 0 0 0 0 0 0 0 0 0 0 0 127 0" result="hardAlpha"/>
<feOffset dy="4"/>
<feGaussianBlur stdDeviation="2"/>
<feComposite in2="hardAlpha" operator="out"/>
<feColorMatrix type="matrix" values="0 0 0 0 0 0 0 0 0 0 0 0 0 0 0 0 0 0 0.25 0"/>
<feBlend mode="normal" in2="BackgroundImageFix" result="effect1_dropShadow_21_46"/>
<feBlend mode="normal" in="SourceGraphic" in2="effect1_dropShadow_21_46" result="shape"/>
</filter>
</defs>
</svg>
